<svg width="1371" height="600" viewBox="0 0 1371 600" fill="none" xmlns="http://www.w3.org/2000/svg">
	<path d="M300.112 362.611C297.222 378.11 288.446 391.869 275.642 400.978C262.319 410.942 246.549 415.923 227.789 415.923C210.388 415.923 196.249 411.687 185.102 403.217C173.955 394.747 168.513 384.036 168.513 371.081C168.704 367.646 169.158 364.231 169.873 360.867L185.37 279.897C186.059 276.972 187.737 274.379 190.118 272.561C192.5 270.744 195.435 269.814 198.422 269.933H232.953L215.547 359.869C215.251 361.095 215.069 362.346 215.004 363.606C214.891 365.523 215.256 367.438 216.064 369.178C216.872 370.918 218.1 372.429 219.634 373.572C223.032 376.273 227.268 377.684 231.598 377.558C236.964 377.695 242.223 376.032 246.547 372.832C248.613 371.382 250.374 369.534 251.727 367.396C253.08 365.257 253.999 362.871 254.43 360.374L271.843 270.178H317.513L300.112 362.611Z" fill="#F9F4EA" />
	<path d="M428.513 376.738L421.491 413.923H314.513L340.177 279.667C340.85 276.803 342.485 274.266 344.802 272.49C347.118 270.714 349.972 269.81 352.874 269.934H387.451L366.921 376.989H428.513V376.738Z" fill="#F9F4EA" />
	<path d="M565.18 306.864H524.163L503.519 413.923H457.884L478.527 306.866H437.513L442.672 279.913C443.36 276.984 445.036 274.387 447.415 272.566C449.793 270.745 452.725 269.814 455.71 269.933H572.513L565.18 306.864Z" fill="#F9F4EA" />
	<path d="M605.935 413.923H560.513L586.2 279.894C586.885 276.97 588.554 274.378 590.921 272.56C593.288 270.743 596.207 269.814 599.177 269.933H633.513L605.935 413.923Z" fill="#F9F4EA" />
	<path d="M846.125 306.864H804.805L784.008 413.923H738.035L758.831 306.866H717.513L722.71 279.913C723.403 276.984 725.092 274.387 727.488 272.566C729.884 270.745 732.838 269.814 735.844 269.933H853.513L846.125 306.864Z" fill="#F9F4EA" />
	<path d="M906.672 413.923H889.269C889.269 413.923 866.275 284.372 865.919 281.168C866.099 278.049 867.39 275.097 869.557 272.849C871.725 270.6 874.626 269.202 877.735 268.909C885.975 268.58 906.663 268.909 906.663 268.909L921.443 372.337L970.501 268.924L1014.13 268.805L937.019 413.923H906.672Z" fill="#F9F4EA" />
	<path d="M787.493 82.9181C787.571 83.2312 853.399 110.979 896.003 134.205C938.606 157.431 979.051 182.657 1036.85 225.072C1094.64 267.487 1113.77 303.4 1109.11 333.432C1104.33 362.978 1084.2 387.024 1070.59 401.838C1047.81 427.041 1024.34 441.789 975.16 469.894C925.977 497.998 913.133 503.352 860.004 517.097C806.874 530.842 771.581 532.148 741.538 522.433C716.545 514.352 696.794 495.577 689.68 467.462C680.269 430.274 678.192 391.165 677.523 345.614C676.853 300.063 677.673 281.208 681.018 230.161C684.364 179.115 685.442 182.815 684.67 178.507C683.899 174.2 675.41 212.631 671.377 251.507C660.041 360.705 656.881 389.881 659.282 460.61C661.683 531.338 686.67 565.67 716.545 583.309C746.421 600.947 810.865 600.261 880.863 571.926C950.862 543.592 932.41 550.548 985.415 522.421C1038.42 494.294 1065.71 471.689 1090.25 451.291C1114.8 430.893 1154.02 384.116 1153.46 333.42C1152.91 282.725 1126.92 265.325 1109.11 246.814C1091.29 228.303 1061.14 207.719 1024.17 184.565C987.202 161.412 965.202 152.839 913.207 127.777C861.213 102.716 787.571 82.2417 787.493 82.9181Z" fill="#F9F4EA" />
</svg>
